<svg width="209" height="254" viewBox="0 0 209 254" fill="none" xmlns="http://www.w3.org/2000/svg">
<g clip-path="url(#clip0_579_22624)">
<g opacity="0.1">
<path d="M132.795 132.817C136.438 130.622 139.38 132.4 139.38 136.57C139.258 138.851 138.597 141.07 137.453 143.046C136.308 145.022 134.712 146.699 132.795 147.94C129.151 150.135 126.21 148.357 126.21 144.165C126.335 141.888 126.997 139.673 128.142 137.701C129.286 135.729 130.881 134.055 132.795 132.817V132.817Z" fill="url(#paint0_linear_579_22624)"/>
</g>
<g opacity="0.4">
<path d="M132.861 157.883C136.504 155.688 139.446 157.466 139.446 161.636C139.325 163.92 138.666 166.143 137.521 168.123C136.377 170.103 134.78 171.784 132.861 173.028C129.217 175.223 126.276 173.423 126.276 169.253C126.398 166.972 127.058 164.753 128.203 162.777C129.347 160.801 130.944 159.124 132.861 157.883V157.883Z" fill="url(#paint1_linear_579_22624)"/>
</g>
<g opacity="0.8">
<path d="M132.926 182.949C136.57 180.755 139.511 182.532 139.511 186.703C139.389 188.983 138.729 191.202 137.584 193.179C136.44 195.155 134.843 196.832 132.926 198.073C129.283 200.268 126.341 198.49 126.341 194.297C126.467 192.021 127.129 189.806 128.273 187.834C129.417 185.862 131.012 184.188 132.926 182.949V182.949Z" fill="url(#paint2_linear_579_22624)"/>
</g>
<path d="M133.014 208.016C136.658 205.821 139.599 207.599 139.599 211.769C139.477 214.05 138.816 216.269 137.672 218.245C136.527 220.221 134.931 221.898 133.014 223.139C129.37 225.334 126.429 223.556 126.429 219.364C126.555 217.087 127.217 214.873 128.361 212.9C129.505 210.928 131.1 209.255 133.014 208.016V208.016Z" fill="url(#paint3_linear_579_22624)"/>
<path d="M106.17 161.944C109.813 159.749 112.755 161.527 112.755 165.697C112.633 167.977 111.972 170.197 110.828 172.173C109.683 174.149 108.087 175.826 106.17 177.067C102.526 179.262 99.585 177.484 99.585 173.292C99.7105 171.015 100.372 168.8 101.517 166.828C102.661 164.856 104.256 163.182 106.17 161.944Z" fill="url(#paint4_linear_579_22624)"/>
<g opacity="0.8">
<path d="M106.236 187.01C109.879 184.815 112.821 186.593 112.821 190.763C112.7 193.047 112.041 195.27 110.896 197.25C109.752 199.23 108.155 200.911 106.236 202.155C102.592 204.35 99.6509 202.55 99.6509 198.38C99.773 196.1 100.433 193.88 101.578 191.904C102.722 189.928 104.319 188.251 106.236 187.01V187.01Z" fill="url(#paint5_linear_579_22624)"/>
</g>
<g opacity="0.4">
<path d="M106.302 212.077C109.945 209.882 112.887 211.659 112.887 215.83C112.764 218.11 112.104 220.329 110.96 222.306C109.815 224.282 108.219 225.959 106.302 227.2C102.658 229.395 99.7168 227.617 99.7168 223.424C99.8423 221.148 100.504 218.933 101.649 216.961C102.793 214.989 104.387 213.315 106.302 212.077Z" fill="url(#paint6_linear_579_22624)"/>
</g>
<g opacity="0.1">
<path d="M106.39 237.055C110.033 234.86 112.974 236.638 112.974 240.809C112.852 243.089 112.192 245.308 111.047 247.284C109.903 249.26 108.307 250.938 106.39 252.178C102.746 254.373 99.8047 252.595 99.8047 248.403C99.9302 246.126 100.592 243.912 101.737 241.94C102.881 239.967 104.475 238.294 106.39 237.055V237.055Z" fill="url(#paint7_linear_579_22624)"/>
</g>
<path d="M178.779 27.0857L180.162 26.4492L180.645 26.2516L181.94 25.7687L182.247 25.659L183.805 25.1761L184.705 24.9566H185.144L186.461 24.7152L187.647 24.5615H188.02H188.744C189.315 24.5615 189.864 24.5615 190.412 24.5615H190.698L192.015 24.7152H192.41C192.893 24.7152 193.397 24.9127 193.858 25.0444C194.297 25.1761 194.736 25.3297 195.153 25.5053L195.527 25.659L196.602 26.1858L196.953 26.3614L168.309 9.61387H168.155H167.958L166.816 8.91148H166.619H166.443C166.026 8.73589 165.587 8.58224 165.148 8.45054C164.687 8.31884 164.183 8.2091 163.7 8.1213H163.524H163.305L161.988 7.96765H161.702C161.154 7.96765 160.583 7.96765 160.034 7.96765H159.88H159.332H158.959L157.773 8.1213L156.456 8.36274H156.017L155.205 8.56029L153.647 9.04318L153.339 9.15293L152.044 9.63582H151.869L151.452 9.74557L150.069 10.3821L149.542 10.6455C148.928 10.9528 148.313 11.282 147.698 11.6332L146.25 12.5112L175.004 29.2148L176.452 28.3368C177.067 27.9856 177.682 27.6564 178.296 27.3491L178.779 27.0857Z" fill="url(#paint8_linear_579_22624)"/>
<path d="M149.762 21.4446L151.189 20.7861L151.65 20.5886L152.989 20.0837H153.252L154.832 19.6008L155.732 19.3813H156.171L157.488 19.1399L158.717 18.9862H159.112H159.837C160.407 18.9862 160.978 18.9862 161.527 18.9862H161.812L163.129 19.1399H163.524C164.029 19.1399 164.512 19.3374 164.973 19.4691C165.434 19.6008 165.873 19.7545 166.29 19.9301L166.663 20.0837L167.739 20.6105L168.09 20.7861L139.402 3.97274H139.248H139.051L137.975 3.44595H137.777H137.602C137.163 3.27035 136.724 3.11671 136.285 2.98501C135.802 2.85331 135.319 2.74356 134.836 2.65576H134.661H134.419L133.102 2.50212H132.817C132.268 2.50212 131.697 2.50212 131.127 2.50212H130.973H130.402H130.007L128.734 2.19482L127.417 2.43627H126.978L126.188 2.63382L124.608 3.11671H124.344L122.918 3.88494H122.764L122.457 4.01664L121.03 4.67512L120.503 4.93852C119.889 5.24581 119.274 5.57506 118.637 5.9482C117.281 6.73903 115.97 7.60368 114.708 8.53825L143.462 25.2419C144.724 24.3071 146.035 23.4425 147.391 22.6518C148.028 22.3006 148.643 21.9714 149.257 21.6421L149.762 21.4446Z" fill="url(#paint9_linear_579_22624)"/>
<path d="M28.7539 147.062C28.7539 146.206 28.7539 145.35 28.7539 144.494V144.165C28.7539 143.33 28.8856 142.518 28.9953 141.684V141.179C28.9953 140.711 29.0685 140.236 29.2148 139.753V139.314C29.3173 138.699 29.4343 138.077 29.566 137.448V137.206C29.7855 136.182 30.0416 135.151 30.3343 134.112V133.826C30.5976 132.926 30.861 132.004 31.1683 131.105C31.4537 130.27 31.739 129.458 32.0463 128.646L32.2 128.207C32.4926 127.446 32.7999 126.715 33.1218 126.012L33.3194 125.573C33.6267 124.885 33.9413 124.198 34.2632 123.51V123.269C34.6144 122.544 34.9876 121.82 35.3607 121.074L35.6241 120.591C36.0192 119.866 36.4143 119.142 36.8313 118.396L37.3142 118.088C37.7239 117.386 38.1483 116.698 38.5873 116.025L38.8287 115.652C39.297 114.92 39.7872 114.189 40.2994 113.457L40.5847 113.062C41.1408 112.286 41.7041 111.555 42.2748 110.867L42.5163 110.56C43.1894 109.696 43.8771 108.862 44.5795 108.057L44.9966 107.553L46.116 106.302L46.4233 105.972L47.8719 104.502L48.1134 104.26C48.8158 103.58 49.5182 102.921 50.3083 102.285L50.462 102.153C51.2083 101.495 51.9765 100.858 52.6569 100.265L23.925 83.5837C23.1567 84.1764 22.3885 84.8129 21.73 85.4714L21.4886 85.6031C20.7642 86.2396 20.0619 86.8981 19.2936 87.5786L19.2058 87.7981L17.7572 89.2687L17.4499 89.5979L16.3304 90.849L16.1109 91.0905L15.9792 91.2441C15.2769 92.0636 14.5891 92.8977 13.916 93.7464L13.7843 93.922V94.0537C13.2136 94.8 12.6502 95.5316 12.0942 96.2486L11.7649 96.5779L11.6332 96.7754C11.1357 97.4924 10.6455 98.2241 10.1626 98.9704V99.1021L10.009 99.3435C9.58461 100.031 9.16757 100.719 8.75784 101.407V101.538C8.3408 102.241 7.94571 102.965 7.55062 103.733L7.41892 103.975L7.28722 104.216C6.91408 104.941 6.54094 105.665 6.18974 106.411V106.587C5.86782 107.275 5.55321 107.962 5.24591 108.65L5.11422 108.935V109.111C4.79229 109.857 4.485 110.589 4.19234 111.306V111.482V111.745C3.88504 112.557 3.57775 113.391 3.31435 114.203C3.00706 115.103 2.74366 116.025 2.48027 116.925V117.123C2.20224 118.162 1.94616 119.193 1.71204 120.218V120.349C1.58034 120.978 1.46327 121.6 1.36084 122.215V122.676C1.28768 123.144 1.21451 123.62 1.14135 124.103V124.366C1.14135 124.366 1.14135 124.52 1.14135 124.607C1.14135 125.442 0.965751 126.276 0.899902 127.088V127.417C0.899902 128.273 0.899902 129.151 0.899902 129.985C0.899902 139.116 4.14844 145.547 9.35048 148.576L37.3142 165.565C32.0024 162.536 28.7758 156.105 28.7539 147.062Z" fill="url(#paint10_linear_579_22624)"/>
<path d="M101.626 23.3541C119.032 13.3012 134.441 14.7279 143.44 25.3076C144.692 24.3169 145.997 23.3937 147.347 22.542C160.078 15.1889 171.053 18.4374 174.982 29.1268C175.618 28.7098 175.947 28.4903 176.43 28.2049C192.432 18.9642 205.47 26.427 205.513 44.8208C205.557 63.2145 192.739 85.603 176.825 94.8438L59.5709 162.536C59.0002 162.844 58.4295 163.195 57.8369 163.546C41.8356 172.787 28.3367 165.017 28.3367 146.974C28.3367 130.534 39.0261 110.867 52.6568 100.287C55.1371 70.8749 76.8232 37.7091 101.626 23.3541Z" fill="url(#paint11_linear_579_22624)"/>
<path d="M53.3595 95.7219C53.4912 94.9902 53.6302 94.2586 53.7765 93.5269L54.018 92.3855C54.018 91.9027 54.2375 91.3978 54.3472 90.9149L54.6764 89.5541L55.0715 88.0615L55.4447 86.6567L55.7739 85.5592L56.2568 83.9789L56.608 82.8375L57.069 81.2132L57.3982 80.2474L58.0347 78.4915L58.342 77.6354L58.6274 76.9331C59.0956 75.7332 59.5858 74.5406 60.098 73.3553L60.3833 72.6749C60.9394 71.4164 61.5101 70.1653 62.0954 68.9215L62.4905 68.0874C63.0465 66.9314 63.6246 65.7827 64.2245 64.6413L64.4221 64.2462C65.0805 62.9951 65.7829 61.7879 66.4853 60.5587L66.9682 59.7466C67.6999 58.5028 68.4315 57.2663 69.1632 56.0371L69.4046 55.6639C70.2094 54.4201 71.0362 53.191 71.8849 51.9764L72.2141 51.4935C73.1799 50.1327 74.1677 48.7937 75.1773 47.4768L75.7261 46.7524L76.7796 45.4135L77.6576 44.338L78.7771 43.021L79.6111 42.0333C80.4013 41.1407 81.1988 40.2554 82.0036 39.3774L82.5085 38.8506L84.5059 36.8093L85.4497 35.8654L86.3716 34.9875L87.513 33.9339L88.4349 33.0998L89.5982 32.0901L90.542 31.278L91.7492 30.2903L92.6931 29.544L93.9442 28.6001L94.8661 27.8978L96.1831 26.9539L97.061 26.3393L98.5536 25.3736L99.2999 24.8907L101.495 23.5298C102.263 23.0908 103.031 22.6738 103.69 22.2787L104.304 21.9714L106.258 21.0056L106.587 20.852L108.782 19.8862L109.616 19.7545L111.811 18.9423H111.965L114.138 18.1961H114.489L116.025 17.8229L116.75 17.5595L118.681 17.2083H119.011C119.713 17.2083 120.415 17.0108 121.206 16.9449H121.842H123.291H125.771L127.637 17.0986H128.01L129.502 17.34H130.007L131.654 17.7351H131.697C132.268 17.9107 132.817 18.0863 133.388 18.2839L133.827 18.4595L135.144 19.0301L135.495 19.1838C136.043 19.4472 136.614 19.7325 137.141 20.0618L108.431 3.35816L108.168 3.20451L106.785 2.50213L106.434 2.34848L105.665 1.97534L105.117 1.77779L104.678 1.6022C104.129 1.40465 103.58 1.2071 103.031 1.05346H102.9L101.253 0.614465H100.749H100.244L99.256 0.263273H98.8828L97.2366 -0.00012207H93.9442H92.9565H92.3199C91.6395 -0.00012207 90.9371 0.153525 90.2347 0.241323L89.9933 0.460819L88.0617 0.812011L87.2496 1.00956L85.9326 1.31685L85.6034 1.3827H85.2522L83.0572 2.04119H82.9036L80.7086 2.85332L80.2916 3.02892L79.8965 3.18256L78.0527 3.9947L77.8552 4.38979L75.9017 5.35557L75.2871 5.66286C74.5188 6.05795 73.7506 6.475 73.0921 6.91399L70.8972 8.27486L70.1509 8.75775L68.6583 9.72353L67.7803 10.3381L66.4634 11.2819L65.5415 11.9843L64.2904 12.9282L63.3465 13.6744L62.1393 14.6622L61.0638 15.3646L59.9004 16.3742L58.9786 17.2083L57.8372 18.2619L56.9153 19.1399L56.3446 19.7545L55.9715 20.1496L53.9741 22.1909L53.4692 22.7177C52.6644 23.581 51.8669 24.4663 51.0767 25.3736L50.9011 25.5492L50.2207 26.3393L49.1013 27.6563L48.2233 28.7318L47.1697 30.0708L46.8844 30.4439L46.621 30.7951C45.6113 32.1121 44.6236 33.451 43.6578 34.8119V34.9655L43.4163 35.3167C42.5676 36.5313 41.7408 37.7604 40.936 39.0042L40.7604 39.2676C39.9849 40.4822 39.2532 41.7187 38.5655 42.9771L38.324 43.3941L38.0826 43.8112C37.3802 45.0404 36.6998 46.2476 36.0193 47.4987L35.8657 47.806C35.2657 48.9474 34.6877 50.0961 34.1317 51.2521L33.8902 51.735L33.7366 52.0642C33.1366 53.308 32.5659 54.5592 32.0245 55.8176V56.0371L31.8489 56.498C31.3368 57.6833 30.8466 58.8759 30.3783 60.0758L30.2027 60.5148V60.8001L29.8954 61.6562L29.2589 63.4121L28.9296 64.3779L28.6443 65.212L28.3809 66.0022L28.0297 67.1436L27.5468 68.7239L27.2176 69.8214L27.0859 70.2604L26.8444 71.2262C26.7127 71.731 26.581 72.2139 26.4493 72.7188L26.1201 74.0796C26.0103 74.5845 25.8786 75.0673 25.7908 75.5502V76.0112C25.7908 76.2307 25.7908 76.4721 25.6591 76.6916C25.5128 77.4233 25.3738 78.1549 25.2421 78.8866L25.0446 79.984C24.9129 80.7523 24.8031 81.5425 24.6934 82.3107C24.6934 82.5302 24.6934 82.7497 24.6934 82.9911V83.474L52.679 100.287C52.679 99.9142 52.679 99.5191 52.8327 99.146C52.8327 98.3778 53.0522 97.5876 53.1839 96.8194L53.3595 95.7219Z" fill="url(#paint12_linear_579_22624)"/>
<path d="M168.331 15.1012C169.011 15.3646 182.51 21.5324 208.85 14.2891C209.047 82.0254 170.679 122.303 168.66 124.41C166.641 124.629 128.163 128.8 127.966 60.9758C143.535 47.683 157.127 32.2356 168.331 15.1012V15.1012Z" fill="#FBFBFC"/>
<path d="M199.258 16.55L201.211 16.1549H201.716L204.24 15.5842L204.965 15.3647L206.896 14.8818H207.248L208.85 14.4428L197.875 8.0116L195.9 8.56034L193.88 8.77983L193.156 9.06518L190.632 9.63586H190.127L188.173 10.031L187.339 10.1846L185.781 10.448L184.903 10.5797L183.63 10.7553L182.752 10.865L181.501 10.9967H180.689H179.416H178.735H177.264H176.869H175.091H171.206H170.306H169.692H168.814H168.243H167.431H166.904L166.158 10.9748H165.697L164.841 10.8431H164.534L163.414 10.6236H163.129L162.427 10.2943H162.075L161.483 10.1407H161.153L160.605 9.98706H160.319H160.166L159.683 9.83341L159.2 9.67976H159.09L158.739 9.54806L158.388 9.41637H158.146H157.927L157.378 8.77983L168.353 15.211H168.485H168.682H168.924L169.275 15.3427L169.626 15.4744L170.109 15.6281L170.592 15.7817H170.745H170.855H171.031L171.58 15.9354H171.909L172.501 16.089H172.853L173.599 16.2427H173.884L175.004 16.4622H175.289L176.123 16.5939H176.584H177.374H177.901H178.713H179.284H180.162H180.776H181.676H185.605H187.383H187.778H189.249H189.951H191.224H192.037L193.266 16.4622L194.144 16.3524L195.395 16.1768H195.878H196.295L197.853 15.9134L199.258 16.55Z" fill="url(#paint13_linear_579_22624)"/>
<path d="M167.936 15.7598L168.111 15.4745V15.3647L168.243 15.1672V15.0574L157.268 8.62622V8.75792L157.136 8.95546L156.961 9.24081L156.763 9.57005L156.544 9.8993L156.324 10.2285L155.841 10.9748V11.0846L155.578 11.4797V11.6114L155.205 12.1601L154.854 12.6649L154.744 12.8405L154.305 13.4771L153.844 14.1136L153.712 14.3112L153.317 14.8599V15.0135L152.812 15.7379L152.681 15.9135L152.242 16.5281L152.088 16.7476L151.495 17.5377L150.903 18.3499L150.727 18.5913L150.2 19.2718L150.047 19.4693L149.366 20.3692L149.213 20.5668L148.642 21.3131L148.444 21.5765L146.886 23.5519L146.666 23.8373L145.964 24.7152L145.81 24.8908L144.954 25.9444L144.735 26.2078L144.011 27.0858L143.791 27.3492L142.869 28.4467L142.716 28.6223L141.903 29.588L141.64 29.8953L140.674 31.0148L139.467 32.3976L139.226 32.661L138.018 34.0219L137.799 34.2633L136.548 35.6242L135.209 37.0509L134.945 37.3362L133.585 38.763L133.365 39.0044L132.004 40.4092L131.872 40.5409L130.424 42.0334L130.117 42.3407L128.624 43.8333L128.448 44.0089L126.034 46.3575L125.836 46.555L122.698 49.3207L120.042 51.7351L119.8 51.9546L116.969 54.4569L127.944 60.8881L130.775 58.3859L131.016 58.1664L133.672 55.7519L136.284 53.2936L136.482 53.096L138.896 50.7474L140.389 49.2548L140.696 48.9475L142.145 47.455L142.277 47.3233L143.637 45.9185L143.857 45.6771L145.218 44.2503L145.745 43.8991L147.084 42.4724L148.335 41.1116L148.554 40.8701L149.761 39.5092L150.003 39.2458L151.21 37.885L152.176 36.7875L152.439 36.4583L153.251 35.4925L153.405 35.3169L154.327 34.2194L154.546 33.956L155.271 33.078L155.49 32.8146L156.346 31.761L156.5 31.5635L157.18 30.7075L157.4 30.4221L158.958 28.4467V28.3369V28.2052L159.551 27.437L159.683 27.2614L160.363 26.3615L160.495 26.1639L161.022 25.4615L161.197 25.2201L161.79 24.4079L162.382 23.5958L162.536 23.3983L162.975 22.7837L163.107 22.6081L163.612 21.8837V21.7301L164.007 21.1814L164.468 20.5448L164.907 19.9083V19.7546L165.258 19.2279L165.631 18.6791V18.5474L166.816 17.5597L167.102 17.1207L167.321 16.7915L167.541 16.4403L167.76 16.111L167.936 15.7598Z" fill="url(#paint14_linear_579_22624)"/>
<path d="M127.965 60.9976L116.991 54.5664C116.991 92.0343 128.909 107.531 139.796 113.83L150.771 120.261C139.884 113.962 128.075 98.4655 127.965 60.9976Z" fill="url(#paint15_linear_579_22624)"/>
<path d="M168.353 21.0715C168.989 21.3788 181.062 27.0637 204.438 20.3472C204.613 80.6865 170.438 116.552 168.638 118.528C166.816 118.528 132.575 122.281 132.399 61.9416C146.27 50.1009 158.377 36.3383 168.353 21.0715V21.0715Z" fill="url(#paint16_linear_579_22624)"/>
<path d="M168.419 39.7285C181.589 32.0901 192.388 38.214 192.432 53.4251C192.476 68.6361 181.786 87.1176 168.573 94.7561C155.359 102.395 144.604 96.2706 144.56 81.0595C144.516 65.8485 155.183 47.367 168.419 39.7285Z" fill="url(#paint17_linear_579_22624)"/>
<path d="M187.208 43.6796C186.855 43.5192 186.466 43.455 186.081 43.4936C185.695 43.5321 185.327 43.672 185.013 43.8991C184.094 44.4835 183.339 45.2916 182.818 46.2477L163.063 80.5329L153.318 74.9796C152.965 74.8193 152.576 74.7551 152.191 74.7936C151.805 74.8322 151.437 74.9721 151.123 75.1991C150.204 75.7836 149.449 76.5917 148.928 77.5477C147.699 79.7427 147.699 81.9376 148.928 82.6839L160.912 89.5102C161.265 89.6706 161.654 89.7348 162.039 89.6963C162.425 89.6577 162.793 89.5178 163.107 89.2907C164.025 88.7056 164.78 87.8976 165.302 86.9421L187.252 48.7938C188.437 46.6867 188.437 44.382 187.208 43.6796Z" fill="#FBFBFC"/>
</g>
<defs>
<linearGradient id="paint0_linear_579_22624" x1="126.232" y1="140.389" x2="139.402" y2="140.389" gradientUnits="userSpaceOnUse">
<stop stop-color="#F57E8C"/>
<stop offset="0.46" stop-color="#F6939D"/>
<stop offset="1" stop-color="#F8B1B5"/>
</linearGradient>
<linearGradient id="paint1_linear_579_22624" x1="126.298" y1="165.456" x2="139.49" y2="165.456" gradientUnits="userSpaceOnUse">
<stop stop-color="#FFB200"/>
<stop offset="0.42" stop-color="#FFBC00"/>
<stop offset="0.99" stop-color="#FFD100"/>
</linearGradient>
<linearGradient id="paint2_linear_579_22624" x1="126.363" y1="190.522" x2="139.555" y2="190.522" gradientUnits="userSpaceOnUse">
<stop stop-color="#FFB200"/>
<stop offset="0.42" stop-color="#FFBC00"/>
<stop offset="0.99" stop-color="#FFD100"/>
</linearGradient>
<linearGradient id="paint3_linear_579_22624" x1="126.429" y1="215.589" x2="139.621" y2="215.589" gradientUnits="userSpaceOnUse">
<stop stop-color="#FFB200"/>
<stop offset="0.42" stop-color="#FFBC00"/>
<stop offset="0.99" stop-color="#FFD100"/>
</linearGradient>
<linearGradient id="paint4_linear_579_22624" x1="102.921" y1="163.831" x2="109.484" y2="175.201" gradientUnits="userSpaceOnUse">
<stop stop-color="#F57E8C"/>
<stop offset="0.46" stop-color="#F6939D"/>
<stop offset="1" stop-color="#F8B1B5"/>
</linearGradient>
<linearGradient id="paint5_linear_579_22624" x1="102.987" y1="188.898" x2="109.55" y2="200.268" gradientUnits="userSpaceOnUse">
<stop stop-color="#F57E8C"/>
<stop offset="0.46" stop-color="#F6939D"/>
<stop offset="1" stop-color="#F8B1B5"/>
</linearGradient>
<linearGradient id="paint6_linear_579_22624" x1="103.053" y1="213.964" x2="109.616" y2="225.334" gradientUnits="userSpaceOnUse">
<stop stop-color="#F57E8C"/>
<stop offset="0.46" stop-color="#F6939D"/>
<stop offset="1" stop-color="#F8B1B5"/>
</linearGradient>
<linearGradient id="paint7_linear_579_22624" x1="103.119" y1="239.031" x2="109.682" y2="250.4" gradientUnits="userSpaceOnUse">
<stop stop-color="#F57E8C"/>
<stop offset="0.46" stop-color="#F6939D"/>
<stop offset="1" stop-color="#F8B1B5"/>
</linearGradient>
<linearGradient id="paint8_linear_579_22624" x1="146.228" y1="18.4376" x2="197.063" y2="18.4376" gradientUnits="userSpaceOnUse">
<stop offset="0.12" stop-color="#5C90FE"/>
<stop offset="0.56" stop-color="#466CF5"/>
<stop offset="0.69" stop-color="#4265F3"/>
<stop offset="0.87" stop-color="#3853EF"/>
<stop offset="1" stop-color="#2E42EB"/>
</linearGradient>
<linearGradient id="paint9_linear_579_22624" x1="141.399" y1="2.19482" x2="141.399" y2="25.2419" gradientUnits="userSpaceOnUse">
<stop stop-color="#4499C6"/>
<stop offset="1" stop-color="#6FE8AB"/>
</linearGradient>
<linearGradient id="paint10_linear_579_22624" x1="26.7784" y1="83.5837" x2="26.7784" y2="165.565" gradientUnits="userSpaceOnUse">
<stop stop-color="#4499C6"/>
<stop offset="1" stop-color="#6FE8AB"/>
</linearGradient>
<linearGradient id="paint11_linear_579_22624" x1="116.925" y1="16.5419" x2="116.925" y2="167.458" gradientUnits="userSpaceOnUse">
<stop stop-color="#4499C6"/>
<stop offset="1" stop-color="#6FE8AB"/>
</linearGradient>
<linearGradient id="paint12_linear_579_22624" x1="80.9171" y1="-0.00012207" x2="80.9171" y2="100.287" gradientUnits="userSpaceOnUse">
<stop stop-color="#4499C6"/>
<stop offset="1" stop-color="#6FE8AB"/>
</linearGradient>
<linearGradient id="paint13_linear_579_22624" x1="208.85" y1="12.9063" x2="157.268" y2="12.9063" gradientUnits="userSpaceOnUse">
<stop stop-color="#FFB200"/>
<stop offset="0.42" stop-color="#FFBC00"/>
<stop offset="0.99" stop-color="#FFD100"/>
</linearGradient>
<linearGradient id="paint14_linear_579_22624" x1="168.331" y1="34.834" x2="116.881" y2="34.834" gradientUnits="userSpaceOnUse">
<stop stop-color="#FFB200"/>
<stop offset="0.42" stop-color="#FFBC00"/>
<stop offset="0.99" stop-color="#FFD100"/>
</linearGradient>
<linearGradient id="paint15_linear_579_22624" x1="150.771" y1="87.4249" x2="116.881" y2="87.4249" gradientUnits="userSpaceOnUse">
<stop stop-color="#FFB200"/>
<stop offset="0.42" stop-color="#FFBC00"/>
<stop offset="0.99" stop-color="#FFD100"/>
</linearGradient>
<linearGradient id="paint16_linear_579_22624" x1="204.438" y1="69.4483" x2="132.399" y2="69.4483" gradientUnits="userSpaceOnUse">
<stop stop-color="#FFB200"/>
<stop offset="0.42" stop-color="#FFBC00"/>
<stop offset="0.99" stop-color="#FFD100"/>
</linearGradient>
<linearGradient id="paint17_linear_579_22624" x1="144.538" y1="67.2313" x2="192.432" y2="67.2313" gradientUnits="userSpaceOnUse">
<stop offset="0.12" stop-color="#7F64FF"/>
<stop offset="1" stop-color="#6B49FF"/>
</linearGradient>
<clipPath id="clip0_579_22624">
<rect width="208.85" height="253.188" fill="white"/>
</clipPath>
</defs>
</svg>
