<svg width="48" height="48" viewBox="0 0 48 48" fill="none" xmlns="http://www.w3.org/2000/svg">
<path d="M20.066 6.54197C20.4077 5.7848 20.9606 5.14231 21.6584 4.69163C22.3563 4.24095 23.1693 4.00122 24 4.00122C24.8307 4.00122 25.6438 4.24095 26.3416 4.69163C27.0394 5.14231 27.5923 5.7848 27.934 6.54197L30.714 12.402C31.354 13.748 32.59 14.682 34.02 14.898L40.24 15.838C43.838 16.382 45.274 20.978 42.67 23.618L38.17 28.178C37.6568 28.7047 37.275 29.345 37.0558 30.047C36.8365 30.749 36.7859 31.4928 36.908 32.218L37.97 38.658C38.586 42.384 34.824 45.226 31.604 43.466L26.042 40.426C25.4163 40.0821 24.714 39.9019 24 39.9019C23.2861 39.9019 22.5837 40.0821 21.958 40.426L16.396 43.466C13.176 45.226 9.41602 42.384 10.03 38.658L11.092 32.218C11.2144 31.4929 11.1641 30.7492 10.9452 30.0473C10.7263 29.3453 10.3449 28.7049 9.83202 28.178L5.33002 23.618C2.72602 20.98 4.16002 16.382 7.76002 15.84L13.98 14.9C14.6932 14.786 15.3674 14.4983 15.9432 14.0624C16.5191 13.6264 16.9788 13.0555 17.282 12.4L20.062 6.53997L20.066 6.54197Z" fill="url(#paint0_linear_579_22331)"/>
<defs>
<linearGradient id="paint0_linear_579_22331" x1="23.9998" y1="4.00122" x2="23.9998" y2="44.0004" gradientUnits="userSpaceOnUse">
<stop stop-color="#4499C6"/>
<stop offset="1" stop-color="#6FE8AB"/>
</linearGradient>
</defs>
</svg>
