<svg width="24" height="24" viewBox="0 0 24 24" fill="none" xmlns="http://www.w3.org/2000/svg">
<g clip-path="url(#clip0_579_12257)">
<path d="M12 23.5C18.3513 23.5 23.5 18.3513 23.5 12C23.5 5.64873 18.3513 0.5 12 0.5C5.64873 0.5 0.5 5.64873 0.5 12C0.5 18.3513 5.64873 23.5 12 23.5Z" fill="url(#paint0_linear_579_12257)"/>
<path d="M8.28418 12.8406L9.64968 16.6171C9.64968 16.6171 9.82018 16.9706 10.0027 16.9706C10.1852 16.9706 12.9027 14.1441 12.9027 14.1441L15.9237 8.30908L8.33268 11.8661L8.28418 12.8406Z" fill="#C8DAEA"/>
<path d="M10.0937 13.8091L9.83172 16.5926C9.83172 16.5926 9.72222 17.4456 10.5747 16.5926C11.4272 15.7396 12.2437 15.0821 12.2437 15.0821L10.0937 13.8091Z" fill="#A9C6D8"/>
<path d="M8.30867 12.9755L5.50267 12.061C5.50267 12.061 5.16767 11.925 5.27517 11.6165C5.29717 11.5525 5.34217 11.4985 5.47517 11.405C6.09717 10.9715 16.9852 7.05804 16.9852 7.05804C17.1421 7.00292 17.311 6.991 17.4742 7.02354C17.5191 7.03746 17.5594 7.06303 17.5912 7.09763C17.623 7.13223 17.6451 7.17464 17.6552 7.22054C17.6746 7.30153 17.6827 7.38483 17.6792 7.46804C17.6792 7.54004 17.6697 7.60704 17.6632 7.71204C17.5967 8.78154 15.6132 16.7675 15.6132 16.7675C15.6132 16.7675 15.4947 17.2345 15.0692 17.2505C14.9644 17.2543 14.8599 17.2368 14.7621 17.1992C14.6642 17.1615 14.575 17.1045 14.4997 17.0315C13.6647 16.313 10.7792 14.374 10.1417 13.9475C10.1278 13.9376 10.1162 13.9248 10.1076 13.9101C10.099 13.8954 10.0935 13.879 10.0917 13.862C10.0827 13.817 10.1317 13.762 10.1317 13.762C10.1317 13.762 15.1557 9.29604 15.2892 8.82754C15.2997 8.79154 15.2607 8.77354 15.2082 8.78904C14.8742 8.91204 9.08967 12.5645 8.45117 12.968C8.40491 12.9816 8.35611 12.9842 8.30867 12.9755Z" fill="white"/>
</g>
<defs>
<linearGradient id="paint0_linear_579_12257" x1="12" y1="23.5" x2="12" y2="0.5" gradientUnits="userSpaceOnUse">
<stop stop-color="#1D93D2"/>
<stop offset="1" stop-color="#38B0E3"/>
</linearGradient>
<clipPath id="clip0_579_12257">
<rect width="24" height="24" fill="white"/>
</clipPath>
</defs>
</svg>
