<svg width="24" height="24" viewBox="0 0 24 24" fill="none" xmlns="http://www.w3.org/2000/svg">
<path d="M24 4.55667C23.117 4.94828 22.1681 5.21301 21.172 5.332C22.1886 4.72264 22.9694 3.75767 23.337 2.60786C22.3856 3.17214 21.3319 3.58192 20.2103 3.80276C19.3121 2.84576 18.0324 2.2478 16.6162 2.2478C13.8968 2.2478 11.6922 4.45242 11.6922 7.17158C11.6922 7.55754 11.7357 7.93328 11.8197 8.29369C7.72747 8.08837 4.09932 6.12809 1.67078 3.14908C1.24694 3.87632 1.00415 4.72212 1.00415 5.62451C1.00415 7.33275 1.87344 8.83987 3.19461 9.72289C2.38748 9.69734 1.62826 9.47581 0.964365 9.107C0.96402 9.12758 0.963945 9.14816 0.963945 9.1689C0.963945 11.5546 2.6612 13.5447 4.91374 13.9971C4.50053 14.1095 4.06554 14.1697 3.61649 14.1697C3.2992 14.1697 2.99075 14.1388 2.69009 14.0814C3.31669 16.0376 5.1351 17.4612 7.28974 17.501C5.60456 18.8216 3.48147 19.6087 1.17458 19.6087C0.777135 19.6087 0.38518 19.5854 0 19.54C2.17907 20.937 4.76723 21.7521 7.54786 21.7521C16.6047 21.7521 21.5573 14.2493 21.5573 7.74254C21.5573 7.52907 21.5525 7.31672 21.5431 7.10557C22.5051 6.41133 23.3399 5.54409 24 4.55667Z" fill="#69ACE0"/>
</svg>
